<?xml version="1.0"?>
<svg xmlns="http://www.w3.org/2000/svg" version="1.2" baseProfile="tiny" width="800" height="381" viewBox="0 0 800 381" stroke-linecap="round" stroke-linejoin="round">

<g id="export (4)2" fill="none" stroke="black" stroke-width="1">
<path d="M 536.58 1 537.23 1.64 537.08 2.58 536.27 3.84 535.21 4.96 531.95 6.93 530.54 7.48 530.12 7.65 530.06 7.72 529.85 7.99 529.65 8.2 528.2 10.13 526.02 12.26 525.5 12.44 524.96 12.51 524.21 12.43 523.52 12.25 522.23 11.67 521.53 11.24 520.56 10.51 520.21 9.44 519.55 9 517.87 9.18 516.47 8.8 515.29 8.42 514.71 7.8 514.53 7.38 514.89 6.95 515.89 6.38 516.13 5.85 515.89 5.49 514.79 5.58 514.3 5.79 513.32 6.27 512.42 6.64 511.25 8.22 509.79 9.88 503.91 14.5 502.09 15.1 500.81 16.26 499.96 17.66 499.07 18.43 498.55 19.13 498.22 20.04 497.59 21.08 496.48 22.25 495.66 22.87 494.93 23.8 494.37 24.66 494.37 25.24 494.72 25.77 495.02 25.92 495.4 25.97 496.02 25.84 496.32 25.48 496.38 25.18 496.57 25.16 496.72 25.02 496.69 24.85 496.93 24.59 497.08 24.5 497.26 24.44 497.4 24.25 497.95 23.83 498.58 23.4 498.92 23.31 499.19 23.37 500.49 24.66 500.79 25.05 500.75 25.26 500.54 25.65 499.58 26.95 498.43 28.02 497.46 28.61 496.51 28.9 495.02 29.39 493.62 29.69 492.83 29.66 492.32 29.55 492.24 28.9 492.04 28.69 492.38 28.01 492.65 27.92 492.88 27.68 492.95 27.35 492.89 27.04 492.17 26.16 491.79 25.88 491.01 26.05 490.35 26.49 489.81 27.06 486.67 29.18 485.45 30.99 483.7 32.6 483.3 33.4 483.54 34.24 484.05 35.07 485.36 36.1 485.82 35.98 486.64 36.93 487.12 37.63 487.2 38.02 487.04 38.7 486.74 39.3 486.07 40.03 484.97 40.85 483.66 41.53 483.01 41.75 482.48 41.87 481.7 41.88 481.03 42.05 480.4 42.4 479.66 42.89 479.28 42.98 478.67 42.83 478.16 42.56 477.6 42.2 477.32 41.99 475.63 41.29 475.12 41.05 474.07 40.26 473.05 39.28 472.44 38.82 471.31 38.22 469.96 38.37 468.36 39.39 466.56 40.41 465.39 41.7 465.12 42.23 465.36 43 466.14 44.04 466.41 44.23 466.76 44.33 466.8 44.08 467.03 44.58 466.45 45.28 465.24 45.77 464.31 45.92 462.96 45.72 462.25 45.27 462.02 44.97 462.2 44.23 462.58 43.84 462.85 43.33 462.8 42.82 463.67 41.44 463.62 41.06 463.29 41.05 462.42 41.98 462.13 42.14 461.53 42.24 460.54 42.99 459.93 43.95 459.13 46 459.09 47.33 460.73 48.25 462.42 49.78 462.43 50.41 462.13 50.63 461.93 50.81 461.96 51.15 461.93 51.25 461.69 51.56 461.25 52.15 460.96 52.1 460.76 52.27 459.78 52.33 459.8 53.13 459.6 53.35 457.95 53.58 456.13 53.66 455.28 53.09 454.44 52.63 453.92 52.38 453.24 51.93 452.14 50.91 451.97 50.57 452.12 50.14 452.65 49.53 453.14 49.46 453.41 49.16 453.49 48.74 453.43 48.48 453.03 48.23 452.57 48.26 450.21 50.6 447.96 52.94 447.87 53.53 448.49 53.89 449.17 53.41 450.59 54.29 451.33 54.42 451.75 55.02 451.4 56.46 452.06 57.42 453.41 58.39 453.08 59.5 452.22 60.47 451.98 60.75 450.69 61.99 449.35 63.19 447.63 63.98 445.56 64.93 443.22 65.69 441.38 65.45 439.92 65.17 438.86 65.5 438.46 66.01 438.59 66.75 434.32 61.9 434.37 61.41 435.05 60.93 434.8 60.61 435.83 59.75 436.48 60.25 438.06 58.94 438.46 58.31 438.69 57.92 438.56 57.38 438.24 57.01 437.77 56.76 436.99 56.88 433.74 59.51 433.16 60.79 433.02 62.43 434.93 64.94 436.74 67.11 436.26 67.95 435.81 68.31 434.94 68.25 434.04 68.4 433.63 68.9 433.65 69.4 433.97 69.75 433.72 70.27 432.38 70.98 431.52 70.15 430.87 70.6 432.15 71.89 432.56 72.64 432.37 73.09 430.11 74.7 429.88 75.37 427.76 76.8 425.64 78.52 424.73 79.69 423.88 80.24 421.07 82.45 421.09 83.06 418.97 85.03 417.86 85.86 416.56 86.46 415.21 86.57 413.82 85.57 411.85 84.93 411.33 84.96 410.79 85.06 410.69 85.91 410.18 86.49 410.26 87.19 410.94 87.66 411.19 88.26 411.18 89.17 410.4 90.97 409.46 92.35 408.32 93.38 404.13 96.48 402.36 97.19 400.6 98.37 400.44 99.07 400.02 99.64 399.23 99.91 398.38 99.93 396.9 100.31 395.27 101.43 393.05 103.96 388.63 106.24 383.89 109.64 381.22 110.33 378.34 112.14 376.68 115.12 375.19 116.3 371.13 117.95 367.3 118.72 364.55 118.58 364.1 118.92 364.13 119.72 364.43 120.59 364.48 121.55 362.6 123.28 359.07 125.33" id="way/9556675"/>
<path d="M 359.07 125.33 352.43 128.45 350.48 128.38 349.26 130.17 342.57 135.91 339.86 137.54 338.17 138.07 336.32 138.27 336.08 138.61 335.84 138.12 335.82 137.97 334.35 138.38 334.52 139.13 334.01 139.56 331.31 140.51 330.85 140.84 326.89 141.98 323.09 143.55 322.24 143.51 321.18 144.2 320.99 144.46 321.09 144.69 320.58 144.98 319.28 145.52 318.08 146.02 317.13 146.23 317.07 146.29 315.46 146.54 309.84 147.12 309.16 146.79 308.28 146.87 307.4 146.72 306.06 146.12 305.04 145.33 303.03 143.05 302.06 142.1 295.28 138.7 292.92 136.09 289.43 132.42 288.76 132.03 288.04 131.75 287.22 131.68 286.23 132.18 285.5 132.87 284.55 133.25 284.41 133.73 285.05 134.21 281.47 136.82 281.27 141.35 281.5 141.49 281.77 141.39 281.85 137.01 285.75 134.06 285.93 134.16 286.13 134.63 290.27 138.81 294.14 142.72 295.24 143.12 299.95 148.02 300.37 150.02 296.03 157.64 294.15 160.24 290.13 165.1 287.16 168.32 284.29 170.95 282.98 172.18 280.41 174.44 277.96 176.47 273.95 179.29 270.88 181.36 269.57 182.25 269.32 182.41 264.38 184.8 260.96 186.18 256.93 187.47 255.1 187.8 249.72 188.85 244.87 189.17 242.5 189.3 241.45 189.27 239.53 189.14 238.53 188.56 233.27 187.89 230.8 187.56 227.32 186.76 222.27 185.22 221.6 185.4 220.56 185.05 218.83 183.85 213.17 180.41 208.9 177.51 208.75 177.39 205.29 174.4 205.86 173.95 204.58 172.95 204.14 171.32 205.23 170.59 206.08 170.03 205.77 169.63 204.42 167.93 203.72 167.05 203.41 166.66 201.23 167.71 199.8 166.57 199.54 166.36 197.91 164.54 197.19 163.2 195.01 159.08 192.06 153.52 191.77 152.19 191.76 151.41 191.85 150.71 191.88 150.15 191.92 149.71 192.07 148.6 192.28 148.01 192.57 147.82 193.15 147.43 193.38 147.1 193.55 146.37 194.14 143.9 195.7 142.21 195.89 142.04 196.09 141.85 196.04 141.3 196.32 140.92 196.88 140.32 197.02 140.16 197.8 138.96 198.22 138.9 198.84 139.1 200.82 138.26 204.18 137.09 204.79 138.06 205.06 138.01 205.46 137.89 206.63 137.37 206.82 137.3 208.16 136.74 208.44 136.62 209.08 136.37 209.36 136.21 209.38 136.18 209.33 136 208.66 134.59 208.71 133.87 208.72 133.78 208.73 133.72 208.75 133.67 208.79 133.63 208.9 133.57 209.11 133.47 209.63 133.25 211.05 132.66 212.33 132.12 213.36 131.74 214.23 131.46 215.44 131.22 215.94 131.13 216.52 131.05 217.51 130.94 218.61 130.83 219.9 130.71 221.21 130.56 225.67 130.15 228.71 129.79 229.08 129.82 229.22 130.07 229.14 130.21 229.18 130.28 229.19 130.38 229.14 130.51 229.12 130.75 229.28 130.97 229.53 131.13 229.85 131.21 230.17 131.23 230.39 131.14 230.66 130.97 230.89 130.78 231.16 130.5 231.33 130.16 231.27 129.81 231.11 129.42 230.82 129.08 230.46 128.84 229.85 128.72 229.53 128.69 229.2 128.69 228.8 128.72 228.44 128.77 220.95 129.32 215.99 129.89 213.36 130.56 210.87 131.36 208.47 132.44" id="way/9557087"/>
<path d="M 149.26 197.04 150.07 197.05 153.8 197.06 153.81 197.52 154.19 197.64 155.37 198.95 155.87 200.46 155.87 201.51 156.21 201.55 156.08 204.19 160.9 205.17 161.32 205.56 165.79 206.23 168.51 206.67 168.95 206.33 169.09 205.82 166.93 205.36 166.05 205.62 164.25 205.32 158.66 204.46 158.96 199.38 161.66 199.29 163.72 199.25 163.67 198.8 159 198.9 158.99 196.98 156.68 196.76 156.5 195.39 156.32 194.81 156.23 193.18 159.3 192.78 159.53 193.3 160.86 193.1 162.28 192.79 162.65 194.27 163.34 194.24 163.07 192.77 166.39 191.98 166.74 193.68 167.01 193.63 166.72 191.83 168.35 191.66 171.24 191.4 171.4 191.52 172.6 191.7 174.32 191.95 172.07 197.89 172.61 198.08 174.73 191.98 176.31 192.51 179.82 194.23 176.64 198.95 176.63 199.09 176.72 199.25 176.99 199.42 177.21 199.4 179.81 198.04 179.92 198.1 180.11 197.92 180.73 198.32 180.28 198.85 181.03 199.28 185.17 197.41 191.9 208.08 188.38 210.27 183.5 207.99 185.34 205.44 182.64 203.99 179.33 208.37 174.33 205.77 171.91 209.14 177.77 212.05 173.09 218.32 163.46 219.97 164.53 224.35 186.09 220.59 187.19 220.8 188.19 233.84 182.89 240.58 180.49 243.41 170.65 233.39 166.64 236.17 175.14 245.4 174.36 245.94 179.42 251.35 179.56 254.01 179.88 260.47 173.99 263.82 173.69 263.54 173.3 263.67 169.47 260.21 167.91 246.75 165.42 245.15 164.74 245.82 145.62 232.75 140.94 237.51 140.22 237.18 139.44 238.17 138.4 239.69 137.94 240.97 136.7 240.61 135.35 243.63 135.64 243.75 134.91 245.11 135.17 245.48 131.89 250.04 132.32 250.96 108.51 278.86 126.43 291.27 156.39 258.09 160.33 261.02 166.76 266.31 160.53 273.35 153.9 279.97 148.48 286.17 149.84 287.21" id="way/178238250"/>
<path d="M 192.79 259.47 179.56 254.01" id="way/438471482"/>
<path d="M 208.47 132.44 207.74 132.16 207.49 131.18 207.23 130.41 206.03 128.73 205.42 128.22 204.99 127.94 204.73 127.72 204.46 127.81 204.23 127.68 203.68 127.95 203.45 127.97 203.44 128 203.42 128.03 203.41 128.06 203.4 128.07 203.38 128.08 203.36 128.07 203.31 128.02 203.01 128.36 202.85 128.54 202.75 128.59 202.67 128.62 202.48 128.64 202.27 128.66 201.5 129.02 201.4 129.16 201.36 129.22 201.27 129.28 201.2 129.3 201.13 129.3 201.02 129.24 200.75 129.46 200.75 129.52 200.74 129.58 200.83 129.68 200.77 129.72 200.79 129.81 200.62 129.9 200.61 129.99 199.83 130.56 200.17 131.1 200.28 131.24 200.41 131.41 200.49 131.67 200.63 132 200.66 132.25 200.66 132.44 200.64 132.6 200.57 132.8 200.44 133.13 200.17 133.73 199.94 134 199.71 134.23 199.18 134.59 198.68 134.92 198.37 135.09 198.22 135.16 198.09 135.21 197.99 135.22 197.89 135.23 197.78 135.21 197.7 135.17" id="way/742230238"/>
<path d="M 393.3 248.84 404.45 267.5 405.09 268.33" id="way/765868896"/>
<path d="M 197.7 135.17 197.65 135.12 197.62 135.05 197.59 134.93 197.66 133.99 197.99 132.93 198.37 132.25 198.72 131.84 198.84 131.87 198.97 131.68 198.99 131.56 199.19 131.5 199.18 131.43 199.25 131.42 199.23 131.35 199.32 131.25 199.22 131.08 199.1 130.96 198.91 130.85 198.68 130.77 198.34 130.74 197.97 130.83 197.82 130.9 197.71 130.96 197.61 131.05 197.62 131.15 197.42 131.43 197.4 131.57 197.31 131.84 196.89 132.42 196.79 132.57 196.69 132.72 196.48 132.99 196.38 133.24 196.31 133.43 196.24 133.6 196.19 134.07 196.39 134.15 196.41 134.08 196.42 134.05 196.42 134.03 196.44 134.01 196.47 134 196.5 134 196.53 134.01 196.55 134.04 196.56 134.07 196.59 134.08 196.64 134.09 196.57 134.9 196.41 134.98 196.53 135.08 196.45 135.53 196.34 135.57 196.26 135.53 196.14 135.46 196.01 135.37 195.94 135.15 195.91 134.93 195.72 134.93 195.62 134.87 195.59 134.77 195.46 134.76 195.28 134.51 195.23 134.46 195.22 134.43 195.2 134.41 195.18 134.4 195.15 134.39 195.1 134.36 195.03 134.31 194.97 134.26 194.93 134.2 194.83 134.04 194.78 134.01 194.74 133.98 194.71 133.93 194.66 133.81 194.68 133.36 194.64 132.57 194.68 132.18 194.75 131.8 194.78 131.73 194.84 131.64 194.84 131.55 194.8 131.43 194.73 131.34 194.59 130.96 194.52 130.76 194.5 130.56 194.91 128.8 195.07 128.37 195.18 128.09 195.35 127.95 195.38 127.68 195.61 127.31 197.17 125.12 197.65 125.57 201.16 122.93 200.78 122.49 201.8 122.02 202.33 122.29 202.85 122.41 203.25 122.37 203.63 122.25 203.93 122.08 204.19 121.87 204.41 121.59 204.6 121.43 204.76 121.33 204.97 121.27 206.02 121.17 206.25 121.22 206.42 121.31 206.66 121.52 207.05 121.58 207.54 121.54 207.85 121.55 208.17 121.66 208.39 121.89 208.51 122.22 208.82 122.56 209.21 122.83 209.69 123.03 210.24 123.12 210.81 123.14 211.46 122.99 212.14 122.67 212.47 122.28 212.71 121.86 212.79 121.49 212.78 121.17 212.46 120.66 211.98 120.36 211.52 120.13 210.44 119.89 208.87 119.58 207.38 119.53 206.53 119.59 205.63 119.69 204.76 119.86 203.95 120.02 202.92 120.26 202.01 120.51 201.1 120.69 199.73 121.38 198.62 122.16 197.64 122.95 197.36 123.19 197.29 123.23 197.2 123.26 196.99 123.35 196.85 123.44 196.69 123.63 196.11 124.36 194.8 126.19 194.14 127.26 193.67 128.39 193.18 130.79 193.13 131.28 193.14 131.53 193.21 131.73 193.37 131.84 193.53 131.88 193.71 131.9 193.52 135.48 193.31 135.6 192.97 135.62 193.14 137.24 190.21 138.69 188.37 138.97 184.87 139.02 183.41 138.76 181.23 136.69 180.87 136.79 180.71 137.02 181.61 137.78 181.56 138.37 180.88 139 179.8 139.33 178.74 139.24 177.66 139.03 176.75 138.41 176.57 137.77 173.25 139.12 171.92 139.44 170.82 139.25 170.23 139.38 169.04 140.03 167.56 140.23 166.56 140.62 165.38 141.08 162.89 144.19 162.7 145.29 163 146.64 163.26 148.45 163.38 149.26 167.04 150.53 169.99 153.4 171.28 154.83 171.61 156.12 170.94 158.33 169.4 160.69 167.22 163.35" id="way/792259155"/>
<path d="M 167.22 163.35 166.2 163.96 165 165.81 161.16 167.96 157.87 168.85 154.64 169.49 152.65 169.36 149.08 169.26 148.19 167.25 142.6 156.05 138.14 157 134.13 159.7 128.47 164.43 123.48 168.53 123.86 170.96 119.74 174.41 117.25 176.92 115.87 179.06 114.75 180.36 111.95 182.71 105.8 187.97 103.21 190.37 101.07 192.36 97.67 195.68 94.96 197.61 88.9 199.17 82.97 205.46 80.57 207.76 77.55 210.03 75.71 211.37 73.6 213.29 70.98 216.46 60.23 226.41 49.95 235.38 41.16 241.64 37.09 244.52 10.78 259.52 5.94 262.62 2.83 266.24 1.28 271.03 1 275.57 2.22 279.39 4.62 283.18 8.1 286.47 10.26 287.48 11.72 287.68 12.14 287.44 12.29 286.92 12.12 286.43 11.63 286.09 8.5 284.48 5.8 282.21 3.92 279.76 2.97 277.44 2.81 276.03 3.02 275.47 2.72 274.49 2.62 272.61 3.33 271.61 4.33 270.93" id="way/792259156"/>
<path d="M 207.06 270.19 204.8 267.62 202.83 266.29 199.82 262.51 197.03 261.13 192.79 259.47" id="way/841730289"/>
<path d="M 134.12 194.71 136.37 197.36 140.42 194.64 142.1 196.49 145.48 196.18 145.62 196.61" id="way/1019578916"/>
<path d="M 127.47 199.14 130.1 197.4 130.8 198.21 132.93 196.81 132.13 196 134.12 194.71" id="way/1019578917"/>
<path d="M 120.94 217.08 122.96 215.73 121.23 213.84 120.37 212.84 118.23 210.21 121.22 208.31 120.98 208.02 121.27 208.01 121.28 207.83 119.24 207.74 118.22 206.16 120.45 205.21 120.88 205.34 121.46 205.08 121.91 205.84 123.68 205.23 124.18 205.77 125.52 204.7 128.75 207.86 129.8 207.03 125.83 203.06 128 199.77 127.47 199.14" id="way/1019578926"/>
<path d="M 117.8 219.03 112.53 212.84 115.63 210.92 120.94 217.08" id="way/1019578927"/>
<path d="M 145.62 196.61 147.88 196.43 148.26 196.48 148.81 197.04 149.26 197.04" id="way/1019578932"/>
<path d="M 47.09 276.32 48.25 270.44 48.87 268.47 49.78 267.35 50.29 267.87 68.74 253.81 70.31 255.33 72.09 254.02 76.61 258.54 81.2 255.02 70.56 244.62 72.89 242.76 72.76 242.6 77.65 238.87 87.17 248.21 88.09 247.56 78.55 238.21 83.78 234.27 92.97 243.11 93.99 242.32 84.86 233.46 91.77 228.24 92.05 228.56 92.4 228.31 93.26 229.31 93.55 229.1 93.51 229.05 94.43 228.47 94.49 228.52 94.71 228.38 94.67 228.33 94.72 228.3 93.78 227.25 95.77 225.76 99.39 229.39 103.76 228.42 105.77 229.3 105.9 229.07 103.92 228.12 102.51 223.14 106.52 220.63 109.67 224.17 110.4 223.73 107.06 219.77 113.17 215.84 116.59 219.76 117.8 219.03" id="way/1019578936"/>
</g>
</svg>